<?xml version="1.0" encoding="UTF-8"?>
<svg id="Layer_1" data-name="Layer 1" xmlns="http://www.w3.org/2000/svg" viewBox="0 0 1376.91 1511.89">
  <defs>
    <style>
      .cls-1 {
        stroke-width: 0px;
      }

      .cls-1, .cls-2, .cls-3 {
        fill: #003dff;
      }

      .cls-2 {
        font-family: Cocogoose, Cocogoose;
        font-size: 155.19px;
      }

      .cls-4 {
        letter-spacing: .24em;
      }

      .cls-5 {
        letter-spacing: .22em;
      }

      .cls-3 {
        font-family: Cocogoose-Light, Cocogoose;
        font-size: 63.07px;
        font-weight: 300;
      }
    </style>
  </defs>
  <text class="cls-2" transform="translate(0 1447.26)"><tspan x="0" y="0">Legolas</tspan></text>
  <g>
    <path class="cls-1" d="M956.89,700.8c-3.81,6.28-7.29,13.86-10.21,23.06-17.5,55.43-29.78,246.36-108.55,266.79-78.77-20.42-91.05-211.35-108.55-266.79-2.92-9.2-6.4-16.78-10.21-23.06,36.39-9.89,76.5-16.45,118.76-16.45s82.38,6.56,118.76,16.45Z"/>
    <path class="cls-1" d="M1139.51,713.91c-28.47-372.9-220.35-630.73-282.2-704.93-9.99-11.97-28.38-11.97-38.37,0-61.85,74.2-253.72,332.03-282.2,704.93-.99,12.59,12.87,20.84,23.48,14.05,24-15.32,63.5-37.9,113.19-56.19,47.28-17.54,103.71-31.21,164.72-31.21s117.43,13.67,164.72,31.21c49.69,18.29,89.19,40.87,113.19,56.19,10.61,6.79,24.47-1.46,23.48-14.05ZM966.27,550.9c-40.23-8.04-83.18-12.98-128.15-12.98s-87.91,4.95-128.14,12.98c-10.48,2.13-19.53-7.61-16.55-17.93,26.34-91.69,63.27-181.31,110.69-268.32,7.29-13.41,14.58-26.24,21.77-38.48,5.53-9.37,19-9.26,24.53.05,7.18,12.19,14.47,25.01,21.77,38.42,47.36,87.01,84.29,176.63,110.69,268.32,2.93,10.32-6.12,20.06-16.6,17.93Z"/>
  </g>
  <text class="cls-3" transform="translate(696.23 1374.37)"><tspan class="cls-4" x="0" y="0">TECHNO</tspan><tspan class="cls-5" x="369.46" y="0">L</tspan><tspan class="cls-4" x="419.42" y="0">OGIES</tspan></text>
</svg>